<?xml version="1.0" encoding="UTF-8"?>
<svg xmlns="http://www.w3.org/2000/svg" xmlns:xlink="http://www.w3.org/1999/xlink" width="100" height="100" viewBox="0 0 100 100" version="1.1">
<g id="surface1">
<path style=" stroke:none;fill-rule:nonzero;fill:rgb(0%,0%,0%);fill-opacity:1;" d="M 50 0 C 22.382812 0 0 22.382812 0 50 C 0 77.617188 22.382812 100 50 100 C 77.617188 100 100 77.617188 100 50 C 100 22.382812 77.617188 0 50 0 Z M 51.777344 27.753906 C 53.613281 25.527344 56.738281 23.828125 59.414062 23.632812 C 59.863281 26.679688 58.613281 29.648438 56.972656 31.757812 C 55.214844 34.023438 52.1875 35.761719 49.257812 35.664062 C 48.75 32.753906 50.117188 29.765625 51.777344 27.753906 Z M 68.242188 66.386719 C 66.132812 69.589844 63.164062 73.59375 59.472656 73.632812 C 56.191406 73.671875 55.351562 71.503906 50.917969 71.523438 C 46.484375 71.542969 45.546875 73.671875 42.265625 73.632812 C 38.574219 73.59375 35.761719 69.980469 33.652344 66.777344 C 27.753906 57.792969 27.128906 47.265625 30.78125 41.660156 C 33.359375 37.675781 37.441406 35.351562 41.289062 35.351562 C 45.195312 35.351562 47.636719 37.5 50.878906 37.5 C 54.003906 37.5 55.917969 35.351562 60.429688 35.351562 C 63.847656 35.351562 67.460938 37.207031 70.039062 40.429688 C 61.601562 45.058594 62.96875 57.109375 71.503906 60.332031 C 70.3125 62.910156 69.746094 64.082031 68.242188 66.386719 Z M 68.242188 66.386719 "/>
</g>
</svg>
