<?xml version="1.0" encoding="UTF-8" standalone="no"?>
<!-- Created with Inkscape (http://www.inkscape.org/) -->

<svg
   version="1.1"
   id="svg48"
   width="736"
   height="288"
   viewBox="0 0 736 288"
   xmlns="http://www.w3.org/2000/svg"
   xmlns:svg="http://www.w3.org/2000/svg">
  <defs
     id="defs52" />
  <g
     id="g54">
    <path
       d="m 356.28813,279.81607 c -31.25083,-3.26911 -57.32227,-17.47243 -89.46899,-48.74138 -10.34128,-10.0589 -20.27298,-18.65802 -22.07045,-19.10916 -1.79747,-0.45113 -15.53643,-0.63489 -30.53101,-0.40834 -31.29484,0.47281 -32.26292,0.74609 -49.7162,14.0345 -8.94571,6.811 -9.90679,7.22067 -15.26711,6.50779 -12.14422,-1.61512 -14.69426,-6.36489 -9.29336,-17.31007 5.58835,-11.32508 13.27791,-18.82801 25.50657,-24.88756 10.30514,-5.1064 11.95036,-5.50072 27.56868,-6.60754 20.06327,-1.42183 26.7935,-3.33715 28.08278,-7.9919 0.50781,-1.83333 0.97745,-14.13333 1.04368,-27.33333 l 0.1204,-24 -3.94719,6.88222 c -3.21109,5.59878 -5.38444,7.58581 -11.65416,10.6551 -6.69616,3.27807 -9.59179,3.83764 -22.07801,4.26657 -16.1632,0.55526 -22.92066,-0.7297 -34.85936,-6.62868 -9.1605,-4.52623 -16.93741,-11.47008 -21.10238,-18.84188 -1.55371,-2.75 -3.48629,-5 -4.29461,-5 -0.80832,0 -12.21359,10.80424 -25.345048,24.00943 -16.179281,16.27012 -23.438381,24.44641 -22.519699,25.36511 3.791958,3.79194 16.100575,1.11556 28.623477,-6.22392 11.34115,-6.64687 15.47406,-5.7643 19.24496,4.10966 3.04278,7.96742 2.00455,11.09623 -6.85877,20.66968 -17.683463,19.10026 -48.433755,25.36639 -71.395644,14.54863 -10.656927,-5.02067 -16.251291,-10.34239 -21.527787,-20.47859 -3.905386,-7.50229 -4.196562,-9.05856 -4.680234,-25.01488 -0.632838,-20.87726 1.16866,-32.027 7.21188,-44.63542 10.8573,-22.652387 31.740288,-35.031959 59.056242,-35.008925 11.343634,0.0096 17.064893,1.659802 25.549383,7.36944 3.77846,2.542719 7.10964,4.623124 7.40261,4.623124 0.29298,0 0.53981,-3.45 0.54851,-7.666666 0.0328,-15.873311 6.79014,-31.520824 18.45066,-42.724711 8.6531,-8.314253 15.6691,-12.690353 28.04075,-17.489914 l 8.8261,-3.424068 62.54676,-0.420674 c 44.68389,-0.300532 63.59552,0.01373 66.21896,1.100395 7.1239,2.950821 8.83661,15.086638 2.56761,18.193488 -1.83333,0.908581 -7.69828,2.899314 -13.0332,4.423854 -5.91724,1.690944 -11.37679,4.269486 -14,6.612202 l -4.30013,3.84031 -0.33896,39.777892 -0.33896,39.777893 3.00562,-8.66667 c 10.73479,-30.953532 34.31428,-46.802013 67.00563,-45.036485 11.93795,0.644721 17.28631,2.833142 28.40679,11.62338 7.33721,5.799733 12.25988,13.666281 12.25988,19.591615 0,2.92309 -5.29796,8.95545 -27.58155,31.40489 -18.56964,18.70784 -27.14156,28.22683 -26.23491,29.13348 3.78306,3.78305 16.10403,1.09923 28.61447,-6.23293 8.70479,-5.10174 12.14432,-5.54162 15.68056,-2.00538 2.41587,2.41587 2.50027,2.14728 3.33677,-10.6171 1.69374,-25.84511 5.62455,-36.31087 18.93904,-50.424922 7.49247,-7.942409 11.29304,-10.704195 21.8256,-15.860139 l 12.75335,-6.243073 23.22307,-0.421892 c 12.77268,-0.23204 24.63777,-0.06681 26.36688,0.367156 3.60304,0.904308 9.74338,12.819333 9.74338,18.906564 v 3.689367 l 5,-4.716651 c 13.49782,-12.732888 22.94387,-18.491211 30.33334,-18.491211 7.8066,0 12.22945,3.209942 16.74316,12.151528 l 4.08165,8.08572 7.22495,-6.833046 c 12.49938,-11.821399 26.23964,-16.104578 37.10253,-11.565775 4.1002,1.713173 9.32877,6.938119 10.52045,10.513141 0.3079,0.92368 2.90559,-0.384529 6.42214,-3.234208 16.58825,-13.442497 27.06628,-12.100184 34.5679,4.428403 1.77754,3.916497 3.40308,7.368407 3.61234,7.670909 0.20924,0.302504 4.13564,-3.055913 8.72532,-7.463148 9.84404,-9.452737 14.86605,-12.293149 23.55436,-13.322149 12.46702,-1.476536 19.74657,3.507424 26.63434,18.235292 3.33336,7.127611 3.4434,8.238739 3.92283,39.608134 l 0.49327,32.2748 4.24108,1.39968 c 8.24802,2.72209 12.249,12.13124 8.358,19.65561 -3.88284,7.50859 -15.27863,16.17061 -24.04551,18.27719 -5.2786,1.26838 -16.72393,-2.53348 -22.86449,-7.59506 -9.12736,-7.52354 -9.89856,-11.00768 -9.93171,-44.86981 l -0.0293,-29.91612 -3.89208,3.72885 c -2.14065,2.05087 -5.88141,7.41313 -8.3128,11.91612 l -4.42071,8.18727 -0.0247,20 c -0.0219,17.71737 -0.33592,20.53068 -2.75204,24.64971 -3.5223,6.00484 -13.51887,12.14777 -21.17223,13.01042 -6.39604,0.72092 -14.61257,-2.08396 -17.75885,-6.06236 -1.24352,-1.5724 -1.66667,-11.591 -1.66667,-39.46086 v -37.35341 l -13.58128,14.42037 -13.58127,14.42038 -5.78405,-0.65194 c -4.08039,-0.45992 -6.79836,-1.74642 -9.22768,-4.3677 -3.08945,-3.33357 -3.35187,-4.40758 -2.55133,-10.44225 0.88173,-6.64686 0.86094,-6.69813 -1.75546,-4.33033 -1.45626,1.3179 -4.34377,4.83996 -6.41668,7.82679 -3.69182,5.31951 -3.78256,5.89311 -4.43558,28.04135 l -0.66667,22.61078 -5.74907,5.0988 c -6.7598,5.99526 -15.68113,10.59025 -20.56132,10.59025 -4.88489,0 -15.13757,-4.63832 -16.16374,-7.31248 -0.47254,-1.23143 -0.85916,-4.07991 -0.85916,-6.32996 v -4.091 l -3.98975,5.50768 c -9.74451,13.45191 -24.09228,16.73757 -38.64651,8.85013 -4.89949,-2.65521 -8.22845,-5.61474 -10.11521,-8.99269 l -2.81229,-5.035 -6.70908,5.34185 c -7.73988,6.16258 -22.26363,13.39222 -26.90698,13.39375 l -3.17981,0.001 3.26285,2.56656 c 1.79456,1.4116 5.32548,6.63027 7.84648,11.59703 4.31972,8.51056 4.58363,9.80216 4.58363,22.43345 0,11.42611 -0.46857,14.35476 -3.17695,19.85611 -6.46652,13.13511 -21.25526,19.41375 -47.48972,20.16204 -8.8,0.25101 -18.4,0.20532 -21.33333,-0.10147 z m 41.33333,-15.60928 c 14.6605,-5.42938 19.31847,-12.55939 19.31847,-29.57104 0,-9.82024 -1.76753,-16.54803 -5.36081,-20.40496 -2.11771,-2.27308 -4.2435,-2.92838 -9.49979,-2.92838 -6.11893,0 -7.28405,0.51246 -12.08853,5.31694 l -5.31694,5.31694 6.6864,5.2853 c 3.67752,2.90692 7.64074,6.6478 8.80714,8.31306 2.88104,4.11327 2.66298,12.86212 -0.44772,17.96364 -3.86279,6.33488 -9.8357,7.82506 -30.76488,7.6755 -15.6016,-0.11147 -19.42127,-0.59414 -28.66667,-3.62231 -19.94765,-6.53353 -45.12033,-26.48137 -59.29801,-46.99011 -3.79054,-5.4832 -9.57499,-15.63356 -12.85435,-22.55633 l -5.96245,-12.58685 0.39074,-67.96167 c 0.38347,-66.697805 0.44292,-68.031644 3.19678,-71.724552 3.97594,-5.331716 8.92817,-7.881124 22.5821,-11.625256 l 11.94519,-3.275569 -57.33333,-0.07455 c -63.66795,-0.08279 -69.19772,0.452525 -83.51746,8.084865 -4.47221,2.383667 -11.5339,7.684122 -15.69264,11.778787 -11.75905,11.577907 -16.04457,22.779172 -16.07482,42.015501 -0.0284,18.095464 5.9433,33.790624 16.19581,42.566384 12.37791,10.59503 39.86456,12.87404 55.99867,4.64304 6.16838,-3.14688 10.31376,-10.64805 11.21876,-20.30061 l 0.64776,-6.90881 -3.5549,8.39762 c -1.95518,4.61869 -5.2101,10.05283 -7.23314,12.07587 -6.25434,6.25434 -19.60883,8.61668 -30.93234,5.47178 -7.30976,-2.03015 -18.91944,-13.31885 -23.70505,-23.04968 -7.60975,-15.473235 -7.61583,-38.329584 -0.0143,-53.770438 7.94472,-16.138122 20.80104,-22.769622 46.66362,-24.069878 17.30001,-0.86977 23.75028,0.705354 31.15004,7.606685 l 5.51662,5.145043 0.37811,66.429828 c 0.41796,73.43154 0.20303,75.67043 -7.65463,79.73379 -4.7319,2.44696 -18.42037,4.67303 -28.81481,4.68598 -19.69047,0.0245 -37.65492,10.49806 -45.97309,26.80302 l -2.74747,5.38548 9.07261,-7.49477 c 4.98994,-4.12213 12.95694,-9.41228 17.70446,-11.75589 l 8.63182,-4.26111 29.8314,-0.42625 29.83139,-0.42624 7.41045,3.6256 c 5.2771,2.58182 12.24494,8.474 24.20344,20.467 35.91778,36.02134 57.70094,45.92173 98.79299,44.90116 15.38956,-0.38223 19.35356,-0.94834 27.33333,-3.90356 z M 385.7414,252.46645 c 10.89178,-2.74257 11.15101,-9.90892 0.65357,-18.06757 -9.59356,-7.45613 -10.83159,-14.56703 -3.90892,-22.45152 4.87437,-5.5516 9.20335,-8.03659 16.32881,-9.37333 l 5.10126,-0.957 -6.7929,-3.92186 c -7.09092,-4.0939 -9.9253,-7.31485 -14.64573,-16.64309 l -2.82553,-5.58367 -7.60112,7.96898 c -27.46364,28.79277 -77.43747,25.19846 -93.73206,-6.74156 -3.49745,-6.85558 -4.60332,-6.84331 -3.50282,0.0388 3.80953,23.82346 36.70042,60.70078 63.47217,71.16508 14.36677,5.61554 35.29099,7.62922 47.45327,4.56672 z m -294.831342,-67.012 c 7.21154,-3.56413 11.880692,-7.09474 17.294922,-13.07766 4.07907,-4.50751 7.41648,-8.57408 7.41648,-9.03683 0,-0.46273 -5.49072,1.88951 -12.2016,5.22723 -11.218585,5.57964 -12.940365,6.05012 -21.371191,5.83973 -10.43007,-0.26027 -19.143264,-4.30175 -22.402038,-10.39081 -1.866556,-3.4877 -1.702428,-3.6824 29.382231,-34.85518 L 120.28813,97.813044 114.9548,93.170224 C 105.16798,84.650517 98.833166,81.652027 89.158187,80.959785 72.139962,79.742137 56.106747,85.356819 45.061553,96.402013 32.046273,109.41729 27.088051,125.07346 27.886033,150.63575 c 0.422218,13.52518 0.979245,16.92805 3.601256,22 7.653922,14.80553 15.981268,18.86717 37.172584,18.1308 11.097949,-0.38563 13.388818,-0.93256 22.250185,-5.3121 z M 53.449807,146.43699 c -1.666325,-4.31968 -2.483668,-9.82162 -2.460866,-16.5653 0.02943,-8.70412 0.64571,-11.33966 4.466356,-19.10049 5.071725,-10.30213 10.48354,-14.679532 16.70576,-13.512612 2.130108,0.399481 4.723961,1.432629 5.764117,2.295883 3.239405,2.688469 7.029627,11.431139 7.029627,16.214809 0,5.54315 -7.497343,16.1062 -20.347496,28.66771 l -8.662491,8.46792 z m 19.048946,-23.4215 c 3.2416,-4.41594 4.391536,-7.14919 3.796537,-9.02386 -2.013393,-6.34365 -8.657352,-0.21996 -12.009959,11.06949 -1.098458,3.69891 -1.997197,7.30939 -1.997197,8.02328 0,1.9627 4.99278,-2.96079 10.210619,-10.06891 z m 273.077967,62.43896 c 7.21154,-3.56413 11.88069,-7.09474 17.29493,-13.07766 4.07907,-4.50751 7.41648,-8.57408 7.41648,-9.03683 0,-0.46273 -5.49072,1.88951 -12.20161,5.22723 -11.21858,5.57964 -12.94036,6.05012 -21.37119,5.83973 -10.43007,-0.26027 -19.14327,-4.30175 -22.40204,-10.39081 -1.86655,-3.4877 -1.70243,-3.6824 29.38224,-34.85518 l 31.25927,-31.347886 -5.33334,-4.64282 c -9.78681,-8.519707 -16.12164,-11.518197 -25.79661,-12.210439 -17.01823,-1.217648 -33.05144,4.397034 -44.09664,15.442228 -13.01528,13.015277 -17.97349,28.671447 -17.17552,54.233737 0.42223,13.52518 0.97925,16.92805 3.60127,22 7.65392,14.80553 15.98126,18.86717 37.17257,18.1308 11.09796,-0.38563 13.38883,-0.93256 22.25019,-5.3121 z m -37.46024,-39.01746 c -1.66634,-4.31968 -2.48368,-9.82162 -2.46087,-16.5653 0.0295,-8.70412 0.64571,-11.33966 4.46635,-19.10049 5.07173,-10.30213 10.48354,-14.679532 16.70576,-13.512612 2.1301,0.399481 4.72396,1.432629 5.76412,2.295883 3.2394,2.688469 7.02962,11.431139 7.02962,16.214809 0,5.54315 -7.49734,16.1062 -20.34749,28.66771 l -8.66249,8.46792 z m 19.04893,-23.4215 c 3.2416,-4.41594 4.39155,-7.14919 3.79655,-9.02386 -2.0134,-6.34365 -8.65736,-0.21996 -12.00996,11.06949 -1.09847,3.69891 -1.9972,7.30939 -1.9972,8.02328 0,1.9627 4.99278,-2.96079 10.21061,-10.06891 z m 94.54196,64.13784 c 3.54705,-1.75133 11.95459,-8.43425 18.6834,-14.85092 6.72881,-6.41666 12.55568,-11.66666 12.94859,-11.66666 0.3929,0 1.11248,2.55 1.59904,5.66666 1.78212,11.41524 5.08454,21.13 7.83868,23.05907 1.5627,1.09456 5.79266,1.94093 9.70028,1.94093 6.47733,0 7.41745,-0.44622 14.4162,-6.84268 4.11784,-3.76348 7.18069,-7.14898 6.80633,-7.52333 -0.37436,-0.37436 -1.48112,-0.0163 -2.45948,0.79564 -1.30184,1.08043 -3.09817,1.07139 -6.69889,-0.0337 l -4.92006,-1.50998 V 128.32424 80.460153 l -22.33333,0.421131 -22.33333,0.421132 -10.34891,4.920435 c -18.26512,8.684244 -31.88736,24.847919 -35.50189,42.125319 -2.59159,12.38775 -3.25914,28.64363 -1.57618,38.38255 3.83262,22.17857 15.95415,29.42131 34.17955,20.42261 z m -2.08591,-30.18632 c -6.70605,-3.35005 -9.62402,-12.0904 -8.72853,-26.14505 1.05597,-16.57357 7.41188,-27.42053 22.45101,-38.314825 4.31335,-3.124579 6.72034,-3.871386 12.47758,-3.871386 h 7.13328 v 29.229431 29.22943 l -5.57954,4.77588 c -8.75945,7.49776 -19.13358,9.4028 -27.7538,5.09652 z m 21,-10.54513 4.33334,-3.25517 v -19.93215 c 0,-12.9451 -0.48742,-19.93214 -1.39046,-19.93214 -2.66316,0 -14.5161,12.29875 -17.15168,17.79678 -5.06069,10.55701 -5.30713,27.99316 -0.41421,29.30508 3.97568,1.06599 10.13585,-0.61167 14.62301,-3.9824 z m 85,39.96196 c 11.84559,-7.60248 11.3322,-6.20025 11.34271,-30.98051 l 0.009,-22.10092 7.65731,-9.57236 c 7.73927,-9.6748 16.67817,-17.76097 19.63401,-17.76097 0.88551,0 2.753,1.2621 4.14999,2.80468 2.72509,3.00907 3.49084,14.57187 1.58025,23.86199 -0.91948,4.4709 -0.48937,4.17393 10.2527,-7.07914 16.2913,-17.06591 19.87109,-26.358143 14.23194,-36.941663 -8.41575,-15.794624 -27.68797,-7.402964 -49.51795,21.561483 l -7.69309,10.20735 -0.5652,-16.20735 c -0.61153,-17.536217 -1.91569,-21.696578 -7.21848,-23.027493 -4.29355,-1.07761 -8.19368,0.712967 -18.0166,8.271526 -7.51159,5.78003 -17.88667,17.619647 -16.58276,18.923547 0.34295,0.34296 2.53268,-0.98287 4.86605,-2.94628 3.01855,-2.53993 5.43896,-3.4533 8.38964,-3.1659 l 4.14715,0.40392 0.35148,44.47332 0.35148,44.47332 3.64852,-0.88782 c 2.00669,-0.48829 6.04852,-2.42812 8.98185,-4.31073 z m 102.22106,0.78604 c 9.518,-4.81724 10.44561,-7.58255 10.44561,-31.13951 0,-23.03049 0.0471,-23.21026 9.71971,-37.08009 9.23677,-13.24492 18.71113,-16.7125 23.62824,-8.64787 2.43372,3.9916 2.64248,6.78143 2.64706,35.37616 0.005,33.80516 0.63179,37.4436 7.35656,42.73331 5.00812,3.93939 10.94706,3.63841 18.13327,-0.91895 5.26519,-3.33908 15.08648,-13.39698 14.07221,-14.41124 -0.20308,-0.20308 -2.88818,0.87706 -5.96692,2.40028 -9.91036,4.90326 -9.59013,6.2004 -9.59013,-38.8472 0,-43.209421 -0.35545,-45.809015 -7.19936,-52.652926 -7.083,-7.083007 -18.44013,-2.948169 -32.4698,11.821412 -5.06647,5.333684 -11.56356,13.512734 -14.43797,18.175674 l -5.2262,8.47808 -0.94854,-12.24371 c -1.52392,-19.670692 -5.04374,-29.577551 -10.50864,-29.577551 -5.0877,0 -14.99772,8.22208 -27.90674,23.153511 l -3.30275,3.82018 4.66667,-2.8152 c 5.24972,-3.16692 9.36216,-3.59633 11.73333,-1.22516 1.17856,1.17856 1.6,12.97169 1.6,44.77261 v 43.1726 l 4.33333,-0.93532 c 2.38334,-0.51442 6.5328,-2.04852 9.22106,-3.40909 z M 504.9548,149.96908 v -30.66667 h -5.06667 c -2.78667,0 -5.78667,0.72 -6.66667,1.6 -1.11874,1.11875 -1.58884,8.23733 -1.56288,23.66667 l 0.0371,22.06667 5.62955,2.8271 c 4.57964,2.29984 5.70746,3.60534 6.04736,7 1.05569,10.54328 1.58224,1.72632 1.58224,-26.49377 z M 190.86825,119.92079 c 4.47612,-2.12407 8.58269,-8.26786 11.39021,-17.0408 2.8863,-9.019097 12.41724,-10.046242 17.39938,-1.87512 l 2.62032,4.29754 0.005,-29.518949 c 0.007,-36.584386 0.45293,-35.586389 -16.23728,-36.271822 -35.60493,-1.462207 -53.64043,13.50855 -53.55888,44.457444 0.0313,11.875545 2.0934,19.078417 7.52293,26.277267 7.72344,10.24027 20.93615,14.38265 30.85799,9.67444 z"
       style="fill:#000000;stroke-width:1.33333"
       id="path480" />
  </g>
</svg>
