<?xml version="1.0" encoding="UTF-8"?>
<svg xmlns="http://www.w3.org/2000/svg" xmlns:xlink="http://www.w3.org/1999/xlink" width="100" height="100" viewBox="0 0 100 100" version="1.1">
<g id="surface1">
<path style=" stroke:none;fill-rule:nonzero;fill:rgb(0%,0%,0%);fill-opacity:1;" d="M 50 8.5 C 27.082031 8.5 8.332031 27.207031 8.332031 50.25 C 8.332031 71.082031 23.582031 88.375 43.5 91.5 L 43.5 62.332031 L 32.917969 62.332031 L 32.917969 50.25 L 43.5 50.25 L 43.5 41.042969 C 43.5 30.582031 49.707031 24.832031 59.25 24.832031 C 63.792969 24.832031 68.542969 25.625 68.542969 25.625 L 68.542969 35.917969 L 63.292969 35.917969 C 58.125 35.917969 56.5 39.125 56.5 42.417969 L 56.5 50.25 L 68.082031 50.25 L 66.207031 62.332031 L 56.5 62.332031 L 56.5 91.5 C 66.316406 89.949219 75.257812 84.941406 81.707031 77.375 C 88.15625 69.8125 91.6875 60.191406 91.667969 50.25 C 91.667969 27.207031 72.917969 8.5 50 8.5 Z M 50 8.5 "/>
</g>
</svg>
