<?xml version="1.0" encoding="UTF-8"?>
<svg xmlns="http://www.w3.org/2000/svg" xmlns:xlink="http://www.w3.org/1999/xlink" width="100" height="100" viewBox="0 0 100 100" version="1.1">
<g id="surface1">
<path style=" stroke:none;fill-rule:nonzero;fill:rgb(0%,0%,0%);fill-opacity:1;" d="M 50 8.332031 C 27.082031 8.332031 8.332031 27.082031 8.332031 50 C 8.332031 72.917969 27.082031 91.667969 50 91.667969 C 72.917969 91.667969 91.667969 72.917969 91.667969 50 C 91.667969 27.082031 72.917969 8.332031 50 8.332031 Z M 50.417969 79.582031 C 34.167969 79.582031 20.832031 66.25 20.832031 50 C 20.832031 33.75 34.167969 20.417969 50.417969 20.417969 C 57.917969 20.417969 65 23.332031 70.417969 28.332031 L 62.082031 36.667969 C 58.75 34.167969 55 32.5 50.417969 32.5 C 40.417969 32.5 32.5 40.417969 32.5 50.417969 C 32.5 60.417969 40.417969 68.332031 50.417969 68.332031 C 58.75 68.332031 64.582031 63.332031 66.667969 56.667969 L 50.417969 56.667969 L 50.417969 45.417969 L 78.332031 45.417969 C 80.832031 56.25 75.417969 79.582031 50.417969 79.582031 Z M 50.417969 79.582031 "/>
</g>
</svg>
